<svg
  aria-hidden="true"
  viewBox="0 0 1280 717"
  xmlns="http://www.w3.org/2000/svg"
>
  <path
    d="m666 39-14 1a300 300 0 0 0-192 103 277 277 0 0 0-52 94l-6-2a99 99 0 0 0-125 35 96 96 0 0 0-17 47l-1 9-14-2c-72-11-145 10-191 53-33 30-48 70-43 110 4 30 22 61 48 83 43 35 100 53 163 50q48-3 91-23l11-5 3 8c18 46 58 79 107 90 13 3 47 2 60-1q41-9 69-37l10-9 8 3a200 200 0 0 0 190-15l8-5 8 8c38 36 92 58 147 61a237 237 0 0 0 187-73l21-26 9-1q35 2 63-12a115 115 0 0 0 53-155 119 119 0 0 0-132-61l-8 2-10-10c-34-36-82-60-131-67l-9-1-1-5a267 267 0 0 0-79-163 295 295 0 0 0-231-84"
  />
</svg>
