<svg xmlns="http://www.w3.org/2000/svg" xmlns:xlink="http://www.w3.org/1999/xlink" version="1.1" width="256" height="256" viewBox="0 0 256 256" xml:space="preserve">
<g style="stroke: none; stroke-width: 0; stroke-dasharray: none; stroke-linecap: butt; stroke-linejoin: miter; stroke-miterlimit: 10; fill: none; fill-rule: nonzero; opacity: 1;" transform="translate(1.4065934065934016 1.4065934065934016) scale(2.81 2.81)">
	<path d="M 76.195 73.076 c -4.226 0 -7.663 -3.438 -7.663 -7.663 s 3.438 -7.663 7.663 -7.663 s 7.663 3.438 7.663 7.663 S 80.421 73.076 76.195 73.076 z M 76.195 59.75 c -3.123 0 -5.663 2.54 -5.663 5.663 s 2.54 5.663 5.663 5.663 s 5.663 -2.54 5.663 -5.663 S 79.318 59.75 76.195 59.75 z" style="stroke: none; stroke-width: 1; stroke-dasharray: none; stroke-linecap: butt; stroke-linejoin: miter; stroke-miterlimit: 10; fill: rgb(0,0,0); fill-rule: nonzero; opacity: 1;" transform=" matrix(1 0 0 1 0 0) " stroke-linecap="round"/>
	<path d="M 19.659 73.076 c -4.226 0 -7.663 -3.438 -7.663 -7.663 s 3.438 -7.663 7.663 -7.663 s 7.663 3.438 7.663 7.663 S 23.884 73.076 19.659 73.076 z M 19.659 59.75 c -3.123 0 -5.663 2.54 -5.663 5.663 s 2.541 5.663 5.663 5.663 s 5.663 -2.54 5.663 -5.663 S 22.781 59.75 19.659 59.75 z" style="stroke: none; stroke-width: 1; stroke-dasharray: none; stroke-linecap: butt; stroke-linejoin: miter; stroke-miterlimit: 10; fill: rgb(0,0,0); fill-rule: nonzero; opacity: 1;" transform=" matrix(1 0 0 1 0 0) " stroke-linecap="round"/>
	<path d="M 5.096 66.438 C 2.285 66.438 0 64.153 0 61.345 V 31.216 c 0 -0.552 0.448 -1 1 -1 s 1 0.448 1 1 v 30.129 c 0 1.705 1.387 3.093 3.093 3.093 l 7.9 -0.024 c 0.001 0 0.002 0 0.003 0 c 0.551 0 0.999 0.445 1 0.997 s -0.445 1.001 -0.997 1.003 L 5.096 66.438 z" style="stroke: none; stroke-width: 1; stroke-dasharray: none; stroke-linecap: butt; stroke-linejoin: miter; stroke-miterlimit: 10; fill: rgb(0,0,0); fill-rule: nonzero; opacity: 1;" transform=" matrix(1 0 0 1 0 0) " stroke-linecap="round"/>
	<path d="M 77.101 47.616 c -0.287 0 -0.572 -0.123 -0.77 -0.36 l -9.99 -12.02 c -1.596 -1.919 -3.942 -3.021 -6.438 -3.021 c -0.553 0 -1 -0.448 -1 -1 s 0.447 -1 1 -1 c 3.093 0 6 1.364 7.977 3.742 l 9.989 12.019 c 0.354 0.424 0.295 1.055 -0.129 1.408 C 77.552 47.54 77.325 47.616 77.101 47.616 z" style="stroke: none; stroke-width: 1; stroke-dasharray: none; stroke-linecap: butt; stroke-linejoin: miter; stroke-miterlimit: 10; fill: rgb(0,0,0); fill-rule: nonzero; opacity: 1;" transform=" matrix(1 0 0 1 0 0) " stroke-linecap="round"/>
	<path d="M 86.917 66.438 l -4.069 -0.024 c -0.553 -0.006 -0.995 -0.459 -0.989 -1.011 c 0.006 -0.549 0.453 -0.989 1 -0.989 c 0.004 0 0.008 0 0.011 0 l 4.048 0.024 c 0.598 0 1.083 -0.485 1.083 -1.083 V 54.05 c 0 -0.796 -0.467 -1.525 -1.189 -1.858 l -9.931 -4.575 H 57.303 c -1.711 0 -3.103 -1.392 -3.103 -3.102 V 31.393 c 0 -0.552 0.447 -1 1 -1 s 1 0.448 1 1 v 13.121 c 0 0.608 0.494 1.102 1.103 1.102 H 77.1 c 0.145 0 0.287 0.031 0.419 0.092 l 10.129 4.667 C 89.076 51.033 90 52.476 90 54.05 v 9.305 C 90 65.055 88.617 66.438 86.917 66.438 z" style="stroke: none; stroke-width: 1; stroke-dasharray: none; stroke-linecap: butt; stroke-linejoin: miter; stroke-miterlimit: 10; fill: rgb(0,0,0); fill-rule: nonzero; opacity: 1;" transform=" matrix(1 0 0 1 0 0) " stroke-linecap="round"/>
	<path d="M 69.532 66.413 h -43.21 c -0.552 0 -1 -0.447 -1 -1 s 0.448 -1 1 -1 h 43.21 c 0.553 0 1 0.447 1 1 S 70.085 66.413 69.532 66.413 z" style="stroke: none; stroke-width: 1; stroke-dasharray: none; stroke-linecap: butt; stroke-linejoin: miter; stroke-miterlimit: 10; fill: rgb(0,0,0); fill-rule: nonzero; opacity: 1;" transform=" matrix(1 0 0 1 0 0) " stroke-linecap="round"/>
	<path d="M 76.2 66.41 c -0.271 0 -0.53 -0.101 -0.71 -0.29 c -0.091 -0.09 -0.171 -0.2 -0.221 -0.32 c -0.05 -0.13 -0.08 -0.25 -0.08 -0.39 c 0 -0.13 0.03 -0.261 0.08 -0.38 c 0.05 -0.12 0.13 -0.23 0.221 -0.32 c 0.369 -0.38 1.04 -0.38 1.409 0 c 0.091 0.09 0.17 0.2 0.221 0.32 c 0.05 0.119 0.069 0.25 0.069 0.38 c 0 0.14 -0.02 0.26 -0.069 0.39 c -0.051 0.12 -0.12 0.23 -0.221 0.32 c -0.09 0.09 -0.199 0.17 -0.319 0.22 S 76.33 66.41 76.2 66.41 z" style="stroke: none; stroke-width: 1; stroke-dasharray: none; stroke-linecap: butt; stroke-linejoin: miter; stroke-miterlimit: 10; fill: rgb(0,0,0); fill-rule: nonzero; opacity: 1;" transform=" matrix(1 0 0 1 0 0) " stroke-linecap="round"/>
	<path d="M 19.66 66.41 c -0.27 0 -0.52 -0.101 -0.71 -0.29 c -0.09 -0.09 -0.16 -0.2 -0.22 -0.32 c -0.05 -0.13 -0.07 -0.25 -0.07 -0.39 c 0 -0.261 0.11 -0.521 0.29 -0.7 c 0.09 -0.101 0.2 -0.17 0.33 -0.22 c 0.36 -0.15 0.81 -0.061 1.09 0.22 c 0.18 0.18 0.29 0.439 0.29 0.7 c 0 0.14 -0.03 0.26 -0.08 0.39 c -0.05 0.12 -0.12 0.23 -0.21 0.32 c -0.1 0.09 -0.21 0.17 -0.33 0.22 C 19.92 66.39 19.79 66.41 19.66 66.41 z" style="stroke: none; stroke-width: 1; stroke-dasharray: none; stroke-linecap: butt; stroke-linejoin: miter; stroke-miterlimit: 10; fill: rgb(0,0,0); fill-rule: nonzero; opacity: 1;" transform=" matrix(1 0 0 1 0 0) " stroke-linecap="round"/>
	<path d="M 68.867 32.216 H 55.2 c -0.553 0 -1 -0.448 -1 -1 s 0.447 -1 1 -1 h 13.667 c 1.231 0 2.233 -1.001 2.233 -2.233 v -6.826 c 0 -1.231 -1.002 -2.233 -2.233 -2.233 H 4.233 C 3.001 18.924 2 19.926 2 21.157 v 10.059 c 0 0.552 -0.448 1 -1 1 s -1 -0.448 -1 -1 V 21.157 c 0 -2.334 1.899 -4.233 4.233 -4.233 h 64.634 c 2.334 0 4.233 1.899 4.233 4.233 v 6.826 C 73.101 30.317 71.201 32.216 68.867 32.216 z" style="stroke: none; stroke-width: 1; stroke-dasharray: none; stroke-linecap: butt; stroke-linejoin: miter; stroke-miterlimit: 10; fill: rgb(0,0,0); fill-rule: nonzero; opacity: 1;" transform=" matrix(1 0 0 1 0 0) " stroke-linecap="round"/>
	<path d="M 24.731 39.916 H 10.28 c -1.428 0 -2.59 -1.162 -2.59 -2.59 v -4.342 c 0 -1.428 1.162 -2.59 2.59 -2.59 h 14.451 c 1.428 0 2.59 1.162 2.59 2.59 v 4.342 C 27.322 38.754 26.16 39.916 24.731 39.916 z M 10.28 32.393 c -0.326 0 -0.59 0.265 -0.59 0.59 v 4.342 c 0 0.326 0.265 0.59 0.59 0.59 h 14.451 c 0.326 0 0.59 -0.265 0.59 -0.59 v -4.342 c 0 -0.326 -0.265 -0.59 -0.59 -0.59 H 10.28 z" style="stroke: none; stroke-width: 1; stroke-dasharray: none; stroke-linecap: butt; stroke-linejoin: miter; stroke-miterlimit: 10; fill: rgb(0,0,0); fill-rule: nonzero; opacity: 1;" transform=" matrix(1 0 0 1 0 0) " stroke-linecap="round"/>
</g>
</svg>