<svg xmlns="http://www.w3.org/2000/svg" xmlns:xlink="http://www.w3.org/1999/xlink" version="1.1" width="256" height="256" viewBox="0 0 256 256" xml:space="preserve">
<g style="stroke: none; stroke-width: 0; stroke-dasharray: none; stroke-linecap: butt; stroke-linejoin: miter; stroke-miterlimit: 10; fill: none; fill-rule: nonzero; opacity: 1;" transform="translate(1.4065934065934016 1.4065934065934016) scale(2.81 2.81)">
	<path d="M 75.841 73.269 c -4.459 0 -8.087 -3.628 -8.087 -8.088 c 0 -4.459 3.628 -8.087 8.087 -8.087 s 8.087 3.628 8.087 8.087 C 83.928 69.641 80.3 73.269 75.841 73.269 z M 75.841 60.094 c -2.805 0 -5.087 2.282 -5.087 5.087 c 0 2.806 2.282 5.088 5.087 5.088 s 5.087 -2.282 5.087 -5.088 C 80.928 62.376 78.646 60.094 75.841 60.094 z" style="stroke: none; stroke-width: 1; stroke-dasharray: none; stroke-linecap: butt; stroke-linejoin: miter; stroke-miterlimit: 10; fill: rgb(0,0,0); fill-rule: nonzero; opacity: 1;" transform=" matrix(1 0 0 1 0 0) " stroke-linecap="round"/>
	<path d="M 19.947 73.269 c -4.459 0 -8.087 -3.628 -8.087 -8.088 c 0 -4.459 3.628 -8.087 8.087 -8.087 s 8.087 3.628 8.087 8.087 C 28.034 69.641 24.406 73.269 19.947 73.269 z M 19.947 60.094 c -2.805 0 -5.087 2.282 -5.087 5.087 c 0 2.806 2.282 5.088 5.087 5.088 s 5.087 -2.282 5.087 -5.088 C 25.034 62.376 22.752 60.094 19.947 60.094 z" style="stroke: none; stroke-width: 1; stroke-dasharray: none; stroke-linecap: butt; stroke-linejoin: miter; stroke-miterlimit: 10; fill: rgb(0,0,0); fill-rule: nonzero; opacity: 1;" transform=" matrix(1 0 0 1 0 0) " stroke-linecap="round"/>
	<path d="M 75.84 68.18 c -0.19 0 -0.39 -0.02 -0.58 -0.06 c -0.2 -0.04 -0.39 -0.101 -0.57 -0.17 c -0.18 -0.07 -0.35 -0.17 -0.51 -0.271 c -0.17 -0.11 -0.32 -0.24 -0.46 -0.38 s -0.26 -0.29 -0.37 -0.45 c -0.109 -0.17 -0.2 -0.34 -0.28 -0.52 c -0.079 -0.181 -0.13 -0.37 -0.17 -0.561 c -0.04 -0.2 -0.06 -0.39 -0.06 -0.59 s 0.02 -0.39 0.06 -0.59 c 0.04 -0.19 0.091 -0.38 0.17 -0.56 c 0.08 -0.181 0.171 -0.351 0.28 -0.511 c 0.11 -0.17 0.23 -0.319 0.37 -0.46 c 1.11 -1.12 3.13 -1.12 4.24 0 c 0.56 0.561 0.88 1.33 0.88 2.12 c 0 0.2 -0.021 0.39 -0.06 0.59 c -0.04 0.19 -0.091 0.38 -0.171 0.561 c -0.069 0.18 -0.17 0.35 -0.279 0.52 c -0.101 0.16 -0.23 0.311 -0.37 0.45 c -0.141 0.14 -0.29 0.27 -0.45 0.38 c -0.17 0.101 -0.34 0.2 -0.52 0.271 c -0.181 0.069 -0.37 0.13 -0.561 0.17 C 76.229 68.16 76.04 68.18 75.84 68.18 z" style="stroke: none; stroke-width: 1; stroke-dasharray: none; stroke-linecap: butt; stroke-linejoin: miter; stroke-miterlimit: 10; fill: rgb(0,0,0); fill-rule: nonzero; opacity: 1;" transform=" matrix(1 0 0 1 0 0) " stroke-linecap="round"/>
	<path d="M 19.95 68.18 c -0.2 0 -0.4 -0.02 -0.59 -0.06 s -0.38 -0.09 -0.56 -0.17 c -0.18 -0.07 -0.36 -0.17 -0.52 -0.28 c -0.16 -0.101 -0.32 -0.23 -0.45 -0.37 c -0.56 -0.56 -0.88 -1.33 -0.88 -2.12 s 0.32 -1.56 0.87 -2.12 c 1.12 -1.12 3.13 -1.12 4.25 0 c 0.56 0.561 0.88 1.33 0.88 2.12 s -0.32 1.561 -0.88 2.12 S 20.73 68.18 19.95 68.18 z" style="stroke: none; stroke-width: 1; stroke-dasharray: none; stroke-linecap: butt; stroke-linejoin: miter; stroke-miterlimit: 10; fill: rgb(0,0,0); fill-rule: nonzero; opacity: 1;" transform=" matrix(1 0 0 1 0 0) " stroke-linecap="round"/>
	<path d="M 87.377 49.85 l -9.706 -4.472 l -9.659 -11.621 c -0.259 -0.312 -0.535 -0.607 -0.823 -0.884 h 1.408 c 2.589 0 4.695 -2.106 4.695 -4.696 v -6.749 c 0 -2.589 -2.106 -4.696 -4.695 -4.696 H 4.696 C 2.106 16.732 0 18.838 0 21.428 v 9.944 v 29.787 c 0 3.059 2.488 5.547 5.551 5.547 l 4.434 -0.014 c -0.075 -0.494 -0.126 -0.996 -0.126 -1.511 c 0 -5.562 4.525 -10.087 10.087 -10.087 s 10.087 4.525 10.087 10.087 c 0 0.511 -0.05 1.009 -0.124 1.5 h 35.968 c -0.074 -0.491 -0.124 -0.989 -0.124 -1.5 c 0 -5.562 4.525 -10.087 10.087 -10.087 s 10.087 4.525 10.087 10.087 c 0 0.518 -0.052 1.024 -0.127 1.521 l 0.64 0.004 c 1.963 0 3.56 -1.597 3.56 -3.56 v -9.2 C 90 52.192 88.971 50.584 87.377 49.85 z M 28.034 37.413 c 0 1.694 -1.378 3.073 -3.073 3.073 H 10.675 c -1.694 0 -3.072 -1.378 -3.072 -3.073 V 33.12 c 0 -1.694 1.378 -3.072 3.072 -3.072 h 14.287 c 1.694 0 3.073 1.378 3.073 3.072 V 37.413 z M 57.163 45.098 c -0.318 0 -0.578 -0.259 -0.578 -0.578 V 32.872 h 3.147 c 2.315 0 4.492 1.021 5.973 2.802 l 7.832 9.423 H 57.163 z" style="stroke: none; stroke-width: 1; stroke-dasharray: none; stroke-linecap: butt; stroke-linejoin: miter; stroke-miterlimit: 10; fill: rgb(0,0,0); fill-rule: nonzero; opacity: 1;" transform=" matrix(1 0 0 1 0 0) " stroke-linecap="round"/>
</g>
</svg>