<?xml version="1.0" encoding="UTF-8"?>
<svg xmlns="http://www.w3.org/2000/svg" xmlns:xlink="http://www.w3.org/1999/xlink" width="2809.5" height="2142" viewBox="0 0 2809.5 2142">
<path fill-rule="evenodd" fill="rgb(68.554688%, 83.006287%, 76.951599%)" fill-opacity="1" d="M 742.585938 325.109375 C 331.058594 326.140625 0.242188 630.03125 0.242188 1000.199219 C 0.242188 1279.332031 187.660156 1520.421875 456.773438 1622.902344 C 451.046875 1726.496094 473.273438 1828.109375 526.015625 1916.011719 C 676.902344 2167.496094 1024.480469 2218.015625 1302.828125 2020.195312 C 1330.628906 2000.441406 1356.621094 1978.972656 1380.738281 1956.078125 C 1391.441406 1963.246094 1402.390625 1970.15625 1413.570312 1976.796875 C 1707.101562 2151.03125 2051.179688 2072.054688 2183.191406 1808.617188 C 2209.820312 1755.476562 2225.929688 1698.652344 2232.199219 1640.328125 C 2550.679688 1601.847656 2789.191406 1411.429688 2808.128906 1170.835938 C 2827.921875 919.578125 2601.730469 677.898438 2270.570312 590.378906 C 2256.140625 489.121094 2215.328125 396.140625 2148.050781 322.898438 C 2008.011719 170.488281 1789.101562 141.488281 1588.179688 232.269531 C 1495.519531 90.160156 1351.269531 0.441406 1190.769531 0.28125 C 997.445312 0.078125 827.144531 130.351562 742.585938 325.109375 Z M 779.03125 442.558594 C 804.636719 443.789062 828.046875 428.148438 836.714844 404.03125 C 896.789062 236.789062 1031.371094 116.75 1190.648438 116.910156 C 1327.078125 117.050781 1445.488281 205.808594 1514.070312 336.171875 C 1521.410156 350.121094 1534.078125 360.511719 1549.210938 364.960938 C 1564.328125 369.410156 1580.621094 367.550781 1594.339844 359.800781 C 1757.941406 267.449219 1945.941406 275.328125 2062.160156 401.808594 C 2121.21875 466.089844 2152.539062 550.628906 2158.71875 641.351562 C 2160.480469 667.191406 2179.078125 688.78125 2204.371094 694.339844 C 2382.058594 733.421875 2530.558594 821.039062 2616.589844 933.28125 C 2669.558594 1002.378906 2698.238281 1080.710938 2691.859375 1161.679688 C 2675.738281 1366.460938 2450.921875 1510.015625 2172.949219 1528.789062 C 2142.488281 1530.847656 2118.78125 1556.046875 2118.558594 1586.570312 C 2118.160156 1645.472656 2105.488281 1703.339844 2078.921875 1756.363281 C 1975.421875 1962.894531 1703.230469 2013.101562 1473.109375 1876.503906 C 1450.988281 1863.371094 1430 1848.976562 1410.210938 1833.480469 C 1386.160156 1814.652344 1351.660156 1817.566406 1331.109375 1840.160156 C 1302.839844 1871.253906 1270.808594 1899.867188 1235.261719 1925.128906 C 1017.511719 2079.882812 744.066406 2052.746094 626.027344 1856.003906 C 578.738281 1777.1875 564.140625 1683.972656 576.953125 1590.78125 C 580.828125 1562.578125 563.773438 1535.695312 536.605469 1527.1875 C 293.445312 1451.039062 116.875 1244.566406 116.875 1000.199219 C 116.875 690.171875 399.789062 441.738281 744.667969 441.738281 C 756.1875 441.738281 767.636719 442.011719 779.03125 442.558594 "/>
</svg>
