<svg xmlns="http://www.w3.org/2000/svg" xmlns:xlink="http://www.w3.org/1999/xlink" version="1.1" width="256" height="256" viewBox="0 0 256 256" xml:space="preserve">
<g style="stroke: none; stroke-width: 0; stroke-dasharray: none; stroke-linecap: butt; stroke-linejoin: miter; stroke-miterlimit: 10; fill: none; fill-rule: nonzero; opacity: 1;" transform="translate(1.4065934065934016 1.4065934065934016) scale(2.81 2.81)">
	<polygon points="54.25,32.3 54.57,48.75 73.33,48.07 77.14,47.17 69.53,38.76 65.56,33.66 62.85,32.3 " style="stroke: none; stroke-width: 1; stroke-dasharray: none; stroke-linecap: butt; stroke-linejoin: miter; stroke-miterlimit: 10; fill: rgb(32,36,30); fill-rule: nonzero; opacity: 1;" transform="  matrix(1 0 0 1 0 0) "/>
	<polygon points="4.56,28.09 5.72,42.02 31.05,42.02 29.62,28.09 " style="stroke: none; stroke-width: 1; stroke-dasharray: none; stroke-linecap: butt; stroke-linejoin: miter; stroke-miterlimit: 10; fill: rgb(32,36,30); fill-rule: nonzero; opacity: 1;" transform="  matrix(1 0 0 1 0 0) "/>
	<path d="M 87.377 50.153 l -9.706 -4.472 L 68.012 34.06 c -0.259 -0.312 -0.535 -0.607 -0.823 -0.884 h 1.408 c 2.589 0 4.695 -2.106 4.695 -4.696 v -6.749 c 0 -2.589 -2.106 -4.696 -4.695 -4.696 H 4.696 C 2.106 17.035 0 19.142 0 21.731 v 9.944 v 29.787 c 0 3.059 2.488 5.547 5.551 5.547 l 4.434 -0.014 H 85.8 l 0.002 -0.003 c -0.001 0.004 -0.001 0.009 -0.002 0.013 l 0.64 0.004 c 1.963 0 3.56 -1.597 3.56 -3.56 v -9.2 C 90 52.496 88.971 50.887 87.377 50.153 z M 56.585 33.176 h 3.147 c 2.315 0 4.492 1.021 5.973 2.802 l 7.832 9.423 H 57.163 c -0.318 0 -0.578 -0.259 -0.578 -0.578 V 33.176 z M 7.603 33.423 c 0 -1.694 1.378 -3.072 3.072 -3.072 h 14.287 c 1.694 0 3.073 1.378 3.073 3.072 v 4.293 c 0 1.694 -1.378 3.073 -3.073 3.073 H 10.675 c -1.694 0 -3.072 -1.378 -3.072 -3.073 V 33.423 z" style="stroke: none; stroke-width: 1; stroke-dasharray: none; stroke-linecap: butt; stroke-linejoin: miter; stroke-miterlimit: 10; fill: rgb(219,51,40); fill-rule: nonzero; opacity: 1;" transform=" matrix(1 0 0 1 0 0) " stroke-linecap="round"/>
	<path d="M 88.675 61.01 l -0.686 -0.004 c 0.001 -0.004 0.001 -0.009 0.002 -0.013 l -0.002 0.003 H 6.705 L 1.952 61.01 c -0.684 0 -1.339 -0.114 -1.952 -0.312 v 0.765 c 0 3.059 2.488 5.547 5.551 5.547 l 4.434 -0.014 H 85.8 l 0.002 -0.003 c -0.001 0.004 -0.001 0.009 -0.002 0.013 l 0.64 0.004 c 1.963 0 3.56 -1.597 3.56 -3.56 v -2.674 C 89.586 60.92 89.143 61.01 88.675 61.01 z" style="stroke: none; stroke-width: 1; stroke-dasharray: none; stroke-linecap: butt; stroke-linejoin: miter; stroke-miterlimit: 10; fill: rgb(191,37,37); fill-rule: nonzero; opacity: 1;" transform=" matrix(1 0 0 1 0 0) " stroke-linecap="round"/>
	<path d="M 76.384 72.965 c -4.685 0 -8.496 -3.812 -8.496 -8.497 c 0 -4.685 3.812 -8.496 8.496 -8.496 s 8.496 3.812 8.496 8.496 C 84.881 69.153 81.069 72.965 76.384 72.965 z" style="stroke: none; stroke-width: 1; stroke-dasharray: none; stroke-linecap: butt; stroke-linejoin: miter; stroke-miterlimit: 10; fill: rgb(32,36,30); fill-rule: nonzero; opacity: 1;" transform=" matrix(1 0 0 1 0 0) " stroke-linecap="round"/>
	<path d="M 17.021 72.965 c -4.685 0 -8.496 -3.812 -8.496 -8.497 c 0 -4.685 3.812 -8.496 8.496 -8.496 c 4.685 0 8.497 3.812 8.497 8.496 C 25.517 69.153 21.706 72.965 17.021 72.965 z" style="stroke: none; stroke-width: 1; stroke-dasharray: none; stroke-linecap: butt; stroke-linejoin: miter; stroke-miterlimit: 10; fill: rgb(32,36,30); fill-rule: nonzero; opacity: 1;" transform=" matrix(1 0 0 1 0 0) " stroke-linecap="round"/>
	<path d="M 17.021 68.968 c -2.481 0 -4.5 -2.019 -4.5 -4.501 c 0 -2.481 2.019 -4.5 4.5 -4.5 c 2.481 0 4.5 2.019 4.5 4.5 C 21.521 66.949 19.502 68.968 17.021 68.968 z" style="stroke: none; stroke-width: 1; stroke-dasharray: none; stroke-linecap: butt; stroke-linejoin: miter; stroke-miterlimit: 10; fill: rgb(80,83,78); fill-rule: nonzero; opacity: 1;" transform=" matrix(1 0 0 1 0 0) " stroke-linecap="round"/>
	<path d="M 76.384 68.968 c -2.481 0 -4.5 -2.019 -4.5 -4.501 c 0 -2.481 2.019 -4.5 4.5 -4.5 c 2.481 0 4.5 2.019 4.5 4.5 C 80.885 66.949 78.866 68.968 76.384 68.968 z" style="stroke: none; stroke-width: 1; stroke-dasharray: none; stroke-linecap: butt; stroke-linejoin: miter; stroke-miterlimit: 10; fill: rgb(80,83,78); fill-rule: nonzero; opacity: 1;" transform=" matrix(1 0 0 1 0 0) " stroke-linecap="round"/>
	<path d="M 90 55.075 h -5.119 c 0 2.363 1.856 3.306 5.119 3.892 V 55.075 z" style="stroke: none; stroke-width: 1; stroke-dasharray: none; stroke-linecap: butt; stroke-linejoin: miter; stroke-miterlimit: 10; fill: rgb(206,214,206); fill-rule: nonzero; opacity: 1;" transform=" matrix(1 0 0 1 0 0) " stroke-linecap="round"/>
	<path d="M 1.921 59.075 c 0.883 0 1.599 -0.716 1.599 -1.599 V 55.68 c 0 -0.871 -0.696 -1.575 -1.562 -1.596 l -1.949 0 C 0.009 54.117 0 54.148 0 54.181 v 4.895 H 1.921 z" style="stroke: none; stroke-width: 1; stroke-dasharray: none; stroke-linecap: butt; stroke-linejoin: miter; stroke-miterlimit: 10; fill: rgb(191,37,37); fill-rule: nonzero; opacity: 1;" transform=" matrix(1 0 0 1 0 0) " stroke-linecap="round"/>
</g>
</svg>